<svg xmlns="http://www.w3.org/2000/svg" width="1024" height="1024" viewBox="0 0 1024 1024">
<g>
<path d="M 167.71 650.79 C163.29,652.99 163.14,653.00 104.70,653.00 C66.45,653.00 45.90,652.65 45.50,651.99 C45.46,651.93 45.42,651.88 45.39,651.83 C45.28,651.66 45.19,651.53 45.19,651.39 C45.22,650.64 48.30,650.00 68.50,645.47 C103.91,637.54 114.79,632.98 122.55,622.80 C125.49,618.95 139.38,591.00 155.00,557.50 C157.76,551.58 166.24,533.35 191.73,478.50 C198.89,463.10 206.87,446.00 209.47,440.50 C212.08,435.00 217.82,422.62 222.24,413.00 C232.24,391.23 235.14,387.09 243.20,383.06 C248.46,380.43 250.42,380.00 257.12,380.00 C267.57,380.00 274.07,382.48 280.35,388.84 C284.51,393.07 286.11,396.07 292.49,411.61 C296.53,421.45 303.28,437.83 307.49,448.00 C311.70,458.17 318.42,474.60 322.43,484.50 C333.90,512.83 337.19,520.10 338.35,519.72 C338.95,519.52 340.50,516.69 341.80,513.43 C343.10,510.17 347.01,500.75 350.49,492.50 C353.97,484.25 359.84,470.30 363.53,461.50 C367.21,452.70 374.85,434.70 380.50,421.50 C386.15,408.30 392.21,394.03 393.96,389.79 C399.57,376.25 407.28,370.98 421.43,371.02 C429.66,371.05 434.78,373.00 440.74,378.39 C444.01,381.34 446.35,385.65 453.99,402.73 C462.97,422.81 490.02,482.74 503.99,513.50 C512.28,531.74 523.41,556.50 528.50,568.00 C530.57,572.67 533.84,579.88 535.76,584.00 C537.68,588.12 540.80,595.10 542.69,599.50 C548.16,612.24 552.70,619.63 558.63,625.41 C561.66,628.37 563.70,631.07 563.16,631.40 C561.83,632.23 512.43,634.20 503.00,633.81 L 495.50 633.50 L 492.78 628.50 C491.28,625.75 488.19,619.22 485.92,614.00 C483.65,608.78 478.51,597.08 474.50,588.00 C470.49,578.92 464.69,565.76 461.61,558.75 C458.52,551.74 453.57,540.49 450.59,533.75 C447.62,527.01 442.48,515.20 439.17,507.50 C431.32,489.24 422.74,470.73 420.76,467.81 C419.23,465.56 419.17,465.55 418.43,467.50 C418.02,468.60 414.78,476.25 411.24,484.50 C407.70,492.75 397.61,516.83 388.82,538.00 C368.89,586.05 367.12,589.82 362.00,595.39 C352.22,605.99 337.04,608.31 323.20,601.30 C313.63,596.46 311.43,592.92 299.47,563.25 C277.59,508.97 265.10,479.05 260.84,470.69 C258.89,466.86 258.68,466.72 257.38,468.50 C256.62,469.53 256.00,470.73 256.00,471.16 C256.00,471.59 250.32,484.45 243.38,499.72 C236.44,515.00 225.69,538.97 219.50,553.00 C213.30,567.03 206.89,581.42 205.25,585.00 C203.61,588.58 199.91,596.90 197.03,603.50 C181.96,638.03 176.90,646.20 167.71,650.79 ZM 763.26 874.15 C754.26,878.09 738.66,877.57 730.00,873.04 C712.69,863.99 706.20,839.41 716.01,819.98 C722.27,807.58 736.36,800.71 752.13,802.36 C770.32,804.26 780.84,817.06 781.32,837.87 L 781.50 845.50 L 756.34 845.50 C742.50,845.50 730.84,845.83 730.43,846.24 C729.42,847.25 732.76,854.42 735.39,856.90 C738.55,859.87 744.37,862.00 749.22,861.98 C753.27,861.96 758.12,860.10 764.21,856.25 C766.85,854.58 767.08,854.61 772.46,857.52 C775.50,859.16 777.99,861.00 778.00,861.61 C778.00,863.62 768.13,872.02 763.26,874.15 ZM 590.35 875.92 C577.27,879.55 563.68,874.49 558.19,863.94 C554.84,857.50 555.36,847.08 559.33,841.08 C563.71,834.46 569.96,832.02 582.59,832.01 C588.40,832.00 594.66,832.60 597.34,833.40 C600.18,834.26 602.23,834.43 602.59,833.86 C603.68,832.09 600.87,823.23 598.52,821.02 C593.39,816.20 581.65,816.10 572.16,820.78 L 566.82 823.42 L 565.07 821.09 C564.11,819.82 562.76,817.22 562.07,815.31 C560.51,811.01 561.90,809.15 568.93,806.13 C580.98,800.94 597.06,801.19 607.19,806.70 C618.36,812.78 620.00,818.42 620.00,850.72 L 620.00 875.08 L 611.75 874.79 L 603.50 874.50 L 603.19 870.68 L 602.87 866.86 L 598.54 870.86 C596.16,873.05 592.47,875.33 590.35,875.92 ZM 459.00 795.05 L 459.00 875.00 L 441.02 875.00 L 440.50 795.50 L 410.50 794.50 L 410.21 786.24 L 409.92 777.98 L 450.02 778.24 L 490.12 778.50 L 490.31 786.50 L 490.50 794.50 ZM 678.32 871.75 L 676.73 876.00 L 667.90 876.00 C660.06,876.00 658.95,875.77 657.99,873.98 C655.23,868.83 632.00,807.49 632.00,805.36 C632.00,804.31 634.13,804.00 641.41,804.00 L 650.83 804.00 L 659.14 829.00 C663.71,842.75 667.70,854.00 668.01,854.00 C668.31,854.00 672.24,842.86 676.74,829.25 L 684.91 804.50 L 694.58 804.21 C703.52,803.95 704.19,804.06 703.52,805.71 C702.70,807.73 680.78,865.17 678.32,871.75 ZM 816.14 874.75 C815.66,876.43 800.87,876.47 799.20,874.80 C798.30,873.90 798.00,861.20 798.00,823.80 L 798.00 774.00 L 815.87 774.00 L 816.18 823.75 C816.36,851.11 816.34,874.06 816.14,874.75 ZM 520.00 865.16 L 520.00 875.00 L 503.00 875.00 L 503.00 804.00 L 520.00 804.00 L 520.00 809.00 C520.00,811.75 520.17,814.00 520.37,814.00 C520.57,814.00 522.71,812.03 525.12,809.62 C529.73,805.01 534.61,803.02 541.29,803.01 L 545.08 803.00 L 544.79 811.25 L 544.50 819.50 L 538.37 820.09 C531.33,820.76 526.41,823.27 523.41,827.72 C521.69,830.27 521.20,833.01 520.66,843.07 C520.30,849.80 520.00,859.74 520.00,865.16 ZM 578.23 861.00 C580.29,862.25 583.27,862.99 586.28,863.00 C595.89,863.00 602.00,858.13 602.00,850.47 C602.00,845.18 601.44,844.92 588.80,844.25 L 579.11 843.74 L 576.05 846.79 C571.43,851.41 572.35,857.42 578.23,861.00 ZM 730.54 830.75 L 729.87 833.00 L 746.43 833.00 C762.42,833.00 763.00,832.93 763.00,830.97 C763.00,827.77 760.50,822.73 757.60,820.05 C754.01,816.74 744.18,816.02 739.01,818.70 C735.70,820.40 732.12,825.51 730.54,830.75 Z" fill="rgb(92,112,45)"/>
<path d="M 1019.00 650.83 C1019.00,651.69 1012.63,652.00 994.67,652.00 C981.28,652.00 970.10,651.76 969.81,651.47 C969.52,651.18 969.62,649.06 970.04,646.77 C970.46,644.47 970.57,640.99 970.28,639.04 C969.40,633.25 964.00,624.16 958.57,619.35 C947.59,609.65 927.37,602.46 903.40,599.74 C891.79,598.42 890.98,598.17 883.40,593.62 C862.55,581.08 840.83,572.52 822.12,569.44 C813.87,568.09 807.57,567.83 791.42,568.20 L 771.10 568.67 L 770.80 564.09 L 770.50 559.50 L 702.90 559.24 L 635.29 558.99 L 634.65 551.34 C634.29,547.14 634.00,500.79 634.00,448.35 L 634.00 353.00 L 575.00 353.00 L 574.75 435.25 C574.42,544.47 574.64,571.58 575.92,578.61 C577.58,587.70 582.44,596.32 589.60,602.84 C598.89,611.30 604.00,613.01 623.50,614.16 C637.16,614.97 656.24,617.91 657.78,619.44 C658.03,619.70 657.36,621.61 656.29,623.68 C653.83,628.42 653.16,628.56 627.50,629.65 C596.63,630.96 592.58,630.43 578.68,623.22 C565.77,616.52 562.20,612.13 553.73,592.50 C545.39,573.18 539.63,560.16 523.43,524.00 C513.95,502.83 504.35,481.57 502.09,476.77 C499.84,471.97 498.00,467.83 498.00,467.58 C498.00,467.32 495.52,461.87 492.50,455.46 C489.48,449.04 487.00,443.50 486.99,443.15 C486.99,442.79 486.28,441.15 485.42,439.50 C484.56,437.85 479.58,426.83 474.36,415.00 C458.18,378.32 455.80,373.89 449.10,367.84 C440.30,359.90 433.34,357.46 420.00,357.65 C414.23,357.73 408.42,357.96 407.09,358.15 C405.04,358.45 403.57,356.97 397.22,348.24 L 389.75 337.98 L 406.09 320.74 C426.77,298.91 430.27,295.15 469.02,253.00 C475.85,245.57 484.65,236.12 488.58,232.00 C492.50,227.88 498.18,221.80 501.19,218.50 C504.21,215.20 512.03,206.64 518.59,199.47 C525.14,192.30 534.55,181.96 539.50,176.48 C560.68,153.04 563.03,151.00 568.78,151.00 C572.07,151.00 573.60,152.51 580.49,162.50 C583.14,166.35 588.10,173.55 591.51,178.50 C598.83,189.13 647.72,260.72 665.26,286.49 C671.99,296.39 684.34,314.28 692.70,326.26 C701.07,338.23 712.03,354.08 717.06,361.48 C722.09,368.88 726.78,375.41 727.49,375.99 C728.45,376.79 731.72,374.72 740.63,367.71 C768.70,345.63 795.23,325.82 798.02,324.84 C803.16,323.05 805.67,324.46 810.36,331.77 C812.74,335.47 829.74,361.23 848.14,389.00 C866.55,416.77 885.11,444.90 889.39,451.50 C893.66,458.10 902.31,471.38 908.60,481.00 C930.09,513.88 950.49,545.07 960.50,560.32 C966.00,568.70 972.50,578.70 974.94,582.53 C982.96,595.11 996.09,615.20 1007.64,632.58 C1013.89,641.97 1019.00,650.18 1019.00,650.83 ZM 45.07 638.96 C36.04,641.18 28.22,643.00 27.71,643.00 C25.87,643.00 27.89,638.95 35.76,626.80 C40.14,620.03 51.35,602.58 60.67,588.00 C69.98,573.42 83.88,551.69 91.55,539.70 C99.22,527.71 109.44,511.74 114.25,504.20 C119.07,496.67 125.20,487.12 127.88,483.00 C130.56,478.88 135.12,471.67 138.01,467.00 C140.91,462.33 146.06,454.23 149.45,449.00 C158.52,435.03 175.97,407.94 183.93,395.45 C186.37,391.63 191.59,383.55 195.54,377.50 C214.38,348.64 221.96,336.92 224.97,331.98 C228.49,326.20 233.07,318.96 242.88,303.68 C269.27,262.54 270.46,261.03 278.05,258.99 C285.69,256.93 293.61,261.17 304.39,273.09 C310.54,279.89 352.84,323.76 375.88,347.23 L 393.28 364.96 L 389.53 369.53 C385.58,374.35 381.71,381.73 376.97,393.46 C375.41,397.33 372.59,404.10 370.71,408.50 C364.62,422.79 345.84,466.36 343.57,471.50 C342.35,474.25 340.77,477.96 340.06,479.75 C339.34,481.54 338.37,483.00 337.90,483.00 C336.97,483.00 334.78,478.47 329.60,465.80 C325.67,456.19 318.42,438.87 316.50,434.50 C315.78,432.85 312.68,425.42 309.62,418.00 C294.03,380.18 291.50,376.46 276.46,369.32 C256.74,359.96 233.61,366.31 220.98,384.56 C219.43,386.79 215.03,395.34 211.19,403.56 C207.36,411.78 201.98,423.23 199.23,429.00 C186.30,456.23 183.00,463.28 183.00,463.64 C183.00,463.86 179.85,470.61 176.00,478.64 C172.15,486.67 169.00,493.39 169.00,493.57 C169.00,493.74 165.58,501.22 161.40,510.19 C157.22,519.16 151.09,532.35 147.77,539.50 C144.45,546.65 138.42,559.43 134.37,567.89 C130.32,576.36 127.00,583.39 127.00,583.53 C127.00,583.67 124.10,589.89 120.55,597.36 C113.06,613.13 108.76,618.38 99.75,622.78 C92.97,626.08 71.05,632.57 45.07,638.96 ZM 676.00 326.26 C681.37,330.43 681.56,329.57 676.76,322.75 C662.17,302.02 655.37,292.05 627.48,250.50 C575.70,173.35 570.64,166.05 569.62,167.06 C569.30,167.37 568.13,175.47 567.00,185.06 C564.63,205.33 562.99,216.21 559.43,235.30 L 556.87 249.10 L 563.73 257.30 C567.51,261.81 574.10,269.77 578.39,275.00 C582.67,280.23 586.92,285.40 587.84,286.50 C588.75,287.61 591.05,290.53 592.94,293.00 C598.82,300.68 607.12,310.00 608.08,310.00 C608.61,310.00 609.00,301.24 609.00,289.50 C609.00,278.23 609.25,269.00 609.55,269.00 C609.85,269.00 619.17,276.99 630.26,286.75 C654.71,308.29 671.31,322.62 676.00,326.26 ZM 871.86 445.30 C877.32,450.09 879.67,451.20 878.64,448.49 C878.32,447.66 870.45,435.62 861.15,421.74 C851.85,407.86 839.62,389.30 833.98,380.50 C814.59,350.27 812.81,347.48 808.85,341.11 C806.66,337.60 804.53,335.12 804.10,335.61 C803.67,336.10 802.78,343.02 802.11,351.00 C801.44,358.98 799.95,372.20 798.79,380.38 C797.19,391.70 796.95,395.69 797.81,397.07 C801.63,403.19 831.35,438.90 832.19,438.38 C832.83,437.98 833.08,432.88 832.86,424.62 C832.61,415.48 832.84,411.50 833.61,411.50 C834.22,411.50 839.39,415.77 845.10,421.00 C850.81,426.23 857.96,432.77 860.99,435.55 C864.02,438.32 868.91,442.71 871.86,445.30 ZM 258.50 653.02 C264.65,653.38 257.54,653.65 240.00,653.70 C224.32,653.75 212.92,653.46 214.66,653.04 C216.40,652.63 229.00,652.08 242.66,651.82 C256.32,651.56 263.23,651.59 258.00,651.89 L 248.50 652.43 ZM 638.00 605.01 C639.17,605.76 638.95,605.94 637.00,605.85 C632.50,605.63 629.96,604.87 630.54,603.93 C630.88,603.39 640.46,603.10 653.31,603.23 L 675.50 603.45 L 656.00 603.76 C643.11,603.95 637.01,604.38 638.00,605.01 Z" fill="rgb(182,221,223)"/>
<path d="M 258.50 653.02 L 248.50 652.43 L 258.00 651.89 C263.23,651.59 256.32,651.56 242.66,651.82 C229.64,652.07 217.58,652.58 214.97,652.98 L 214.97 652.98 C214.97,652.98 214.98,652.97 215.00,652.97 C216.93,652.52 233.35,651.87 251.50,651.54 C269.65,651.20 297.33,650.50 313.00,649.98 C328.67,649.45 356.12,648.56 374.00,647.99 C420.16,646.52 488.13,644.16 518.00,642.99 C556.36,641.49 600.07,640.10 632.80,639.35 L 662.11 638.68 L 664.73 634.09 C666.18,631.56 669.08,626.60 671.18,623.06 C675.55,615.70 675.62,615.40 673.25,614.15 C671.37,613.15 646.18,607.47 636.67,605.83 C636.78,605.84 636.89,605.84 637.00,605.85 C638.95,605.94 639.17,605.76 638.00,605.01 C637.01,604.38 643.11,603.95 656.00,603.76 L 675.50 603.45 L 653.31 603.23 C649.12,603.18 645.27,603.19 641.99,603.23 C647.32,603.02 654.48,602.87 663.50,602.76 C682.52,602.52 690.42,602.57 698.06,601.18 C704.78,599.96 711.30,597.63 725.00,593.00 C739.33,588.17 756.58,583.60 769.00,581.34 C783.40,578.73 813.34,578.94 826.00,581.75 C840.49,584.96 851.99,589.38 869.00,598.26 C877.53,602.71 885.71,606.97 887.19,607.72 C888.66,608.47 895.30,609.75 901.92,610.57 C937.33,614.94 959.99,627.01 959.99,641.50 C959.99,646.70 956.86,651.74 952.51,653.56 C948.92,655.06 937.33,655.51 935.38,654.23 C934.76,653.83 933.75,651.11 933.13,648.20 C931.59,640.97 929.84,637.91 924.59,633.29 C919.43,628.74 914.48,626.99 906.88,627.02 C894.44,627.07 882.71,637.18 881.31,649.07 L 880.72 654.00 L 753.18 654.00 L 752.48 649.75 C750.87,639.97 746.06,633.44 737.50,629.39 C727.92,624.85 715.94,626.86 708.16,634.31 C704.02,638.28 701.97,642.07 700.50,648.50 L 699.35 653.50 L 455.42 653.65 C374.40,653.70 302.85,653.61 259.30,653.43 C261.34,653.31 261.15,653.18 258.50,653.02 ZM 399.11 267.98 C386.97,270.27 373.08,268.16 363.50,262.57 C351.52,255.58 341.83,243.10 338.53,230.46 C336.59,222.99 336.57,210.09 338.49,202.70 C344.46,179.77 364.65,164.54 389.00,164.62 C412.91,164.69 431.98,178.86 438.62,201.50 C441.05,209.79 440.83,223.46 438.13,232.00 C432.26,250.55 417.02,264.61 399.11,267.98 ZM 280.01 875.42 C265.59,879.46 249.72,874.71 238.05,862.86 C220.73,845.26 220.58,809.72 237.75,790.96 C246.87,780.99 257.04,777.03 273.56,777.01 C285.28,777.00 292.83,779.10 300.08,784.42 C304.05,787.33 311.00,795.99 311.00,798.04 C311.00,798.42 307.78,800.17 303.85,801.93 L 296.70 805.12 L 292.60 801.17 C286.69,795.47 282.61,793.73 273.96,793.21 C260.52,792.42 251.81,798.23 246.85,811.32 C244.95,816.33 244.52,819.30 244.59,827.00 C244.74,842.41 249.77,852.21 260.19,857.41 C265.87,860.24 274.32,860.87 281.12,858.98 C286.55,857.47 293.74,850.68 295.05,845.83 C296.80,839.31 296.35,839.00 285.15,839.00 C273.16,839.00 272.57,838.56 273.19,830.02 C273.43,826.73 273.97,823.70 274.39,823.27 C275.35,822.31 306.23,821.63 310.71,822.47 L 314.00 823.09 L 314.00 875.00 L 299.09 875.00 L 298.48 871.25 C298.14,869.19 297.78,866.93 297.68,866.23 C297.57,865.47 295.09,866.76 291.57,869.39 C288.11,871.99 283.31,874.49 280.01,875.42 ZM 372.53 875.91 C365.35,877.24 362.95,877.19 356.50,875.59 C338.40,871.11 327.76,855.66 329.26,836.07 C330.32,822.31 337.68,810.72 348.80,805.34 C353.91,802.87 355.59,802.58 365.00,802.57 C374.38,802.56 376.15,802.86 381.63,805.36 C392.71,810.43 399.15,819.71 401.05,833.38 C404.03,854.86 392.39,872.24 372.53,875.91 ZM 773.50 609.32 C789.00,610.11 863.94,609.91 864.45,609.08 C865.65,607.14 853.27,600.38 838.81,595.09 C814.82,586.32 791.51,585.86 764.64,593.65 C750.52,597.74 737.74,604.14 739.73,606.13 C740.52,606.92 756.98,608.47 773.50,609.32 ZM 736.79 671.97 C731.23,675.14 724.46,675.52 719.00,672.98 C713.45,670.39 710.35,667.57 707.99,662.95 C703.61,654.43 704.66,646.49 711.09,639.52 C716.29,633.88 719.43,632.69 727.84,633.16 C733.51,633.48 735.38,634.05 738.45,636.39 C751.10,646.04 750.25,664.30 736.79,671.97 ZM 916.79 672.10 C909.41,675.88 898.29,673.75 892.19,667.37 C883.23,658.01 886.41,640.57 898.20,634.41 C901.38,632.75 911.67,632.55 915.68,634.06 C922.61,636.68 928.00,644.96 928.00,652.99 C928.00,661.73 924.12,668.34 916.79,672.10 ZM 356.90 858.71 C360.87,861.39 368.54,861.81 372.80,859.60 C382.56,854.52 386.19,838.61 380.25,826.98 C376.42,819.48 373.42,817.54 365.63,817.52 C360.34,817.50 358.80,817.92 355.82,820.19 C350.30,824.39 348.50,829.05 348.52,839.00 C348.53,846.17 348.92,848.20 351.02,851.96 C352.38,854.42 355.03,857.45 356.90,858.71 ZM 630.47 604.25 C630.50,604.48 630.72,604.69 631.11,604.88 C630.29,604.65 630.07,604.44 630.47,604.25 Z" fill="rgb(226,106,42)"/>
<path d="M 0.00 512.00 L 0.00 0.00 L 512.00 0.00 L 1024.00 0.00 L 1024.00 512.00 L 1024.00 1024.00 L 512.00 1024.00 L 0.00 1024.00 L 0.00 512.00 ZM 280.01 875.42 C283.31,874.49 288.11,871.99 291.57,869.39 C295.09,866.76 297.57,865.47 297.68,866.23 C297.78,866.93 298.14,869.19 298.48,871.25 L 299.09 875.00 L 306.55 875.00 L 314.00 875.00 L 314.00 849.05 L 314.00 823.09 L 310.71 822.47 C306.23,821.63 275.35,822.31 274.39,823.27 C273.97,823.70 273.43,826.73 273.19,830.02 C272.57,838.56 273.16,839.00 285.15,839.00 C296.35,839.00 296.80,839.31 295.05,845.83 C293.74,850.68 286.55,857.47 281.12,858.98 C274.32,860.87 265.87,860.24 260.19,857.41 C249.77,852.21 244.74,842.41 244.59,827.00 C244.52,819.30 244.95,816.33 246.85,811.32 C251.81,798.23 260.52,792.42 273.96,793.21 C282.61,793.73 286.69,795.47 292.60,801.17 L 296.70 805.12 L 303.85 801.93 C307.78,800.17 311.00,798.42 311.00,798.04 C311.00,795.99 304.05,787.33 300.08,784.42 C292.83,779.10 285.28,777.00 273.56,777.01 C257.04,777.03 246.87,780.99 237.75,790.96 C220.58,809.72 220.73,845.26 238.05,862.86 C249.72,874.71 265.59,879.46 280.01,875.42 ZM 372.53 875.91 C392.39,872.24 404.03,854.86 401.05,833.38 C399.15,819.71 392.71,810.43 381.63,805.36 C376.15,802.86 374.38,802.56 365.00,802.57 C355.59,802.58 353.91,802.87 348.80,805.34 C337.68,810.72 330.32,822.31 329.26,836.07 C327.76,855.66 338.40,871.11 356.50,875.59 C362.95,877.19 365.35,877.24 372.53,875.91 ZM 590.35 875.92 C592.47,875.33 596.16,873.05 598.54,870.86 L 602.87 866.86 L 603.19 870.68 L 603.50 874.50 L 611.75 874.79 L 620.00 875.08 L 620.00 850.72 C620.00,818.42 618.36,812.78 607.19,806.70 C597.06,801.19 580.98,800.94 568.93,806.13 C561.90,809.15 560.51,811.01 562.07,815.31 C562.76,817.22 564.11,819.82 565.07,821.09 L 566.82 823.42 L 572.16 820.78 C581.65,816.10 593.39,816.20 598.52,821.02 C600.87,823.23 603.68,832.09 602.59,833.86 C602.23,834.43 600.18,834.26 597.34,833.40 C594.66,832.60 588.40,832.00 582.59,832.01 C569.96,832.02 563.71,834.46 559.33,841.08 C555.36,847.08 554.84,857.50 558.19,863.94 C563.68,874.49 577.27,879.55 590.35,875.92 ZM 763.26 874.15 C768.13,872.02 778.00,863.62 778.00,861.61 C777.99,861.00 775.50,859.16 772.46,857.52 C767.08,854.61 766.85,854.58 764.21,856.25 C758.12,860.10 753.27,861.96 749.22,861.98 C744.37,862.00 738.55,859.87 735.39,856.90 C732.76,854.42 729.42,847.25 730.43,846.24 C730.84,845.83 742.50,845.50 756.34,845.50 L 781.50 845.50 L 781.32 837.87 C780.84,817.06 770.32,804.26 752.13,802.36 C736.36,800.71 722.27,807.58 716.01,819.98 C706.20,839.41 712.69,863.99 730.00,873.04 C738.66,877.57 754.26,878.09 763.26,874.15 ZM 678.32 871.75 C680.78,865.17 702.70,807.73 703.52,805.71 C704.19,804.06 703.52,803.95 694.58,804.21 L 684.91 804.50 L 676.74 829.25 C672.24,842.86 668.31,854.00 668.01,854.00 C667.70,854.00 663.71,842.75 659.14,829.00 L 650.83 804.00 L 641.41 804.00 C634.13,804.00 632.00,804.31 632.00,805.36 C632.00,807.49 655.23,868.83 657.99,873.98 C658.95,875.77 660.06,876.00 667.90,876.00 L 676.73 876.00 L 678.32 871.75 ZM 816.14 874.75 C816.34,874.06 816.36,851.11 816.18,823.75 L 815.87 774.00 L 806.93 774.00 L 798.00 774.00 L 798.00 823.80 C798.00,861.20 798.30,873.90 799.20,874.80 C800.87,876.47 815.66,876.43 816.14,874.75 ZM 459.00 835.03 L 459.00 795.05 L 474.75 794.78 L 490.50 794.50 L 490.31 786.50 L 490.12 778.50 L 450.02 778.24 L 409.92 777.98 L 410.21 786.24 L 410.50 794.50 L 425.50 795.00 L 440.50 795.50 L 440.76 835.25 L 441.02 875.00 L 450.01 875.00 L 459.00 875.00 L 459.00 835.03 ZM 520.00 865.16 C520.00,859.74 520.30,849.80 520.66,843.07 C521.20,833.01 521.69,830.27 523.41,827.72 C526.41,823.27 531.33,820.76 538.37,820.09 L 544.50 819.50 L 544.79 811.25 L 545.08 803.00 L 541.29 803.01 C534.61,803.02 529.73,805.01 525.12,809.62 C522.71,812.03 520.57,814.00 520.37,814.00 C520.17,814.00 520.00,811.75 520.00,809.00 L 520.00 804.00 L 511.50 804.00 L 503.00 804.00 L 503.00 839.50 L 503.00 875.00 L 511.50 875.00 L 520.00 875.00 L 520.00 865.16 ZM 736.79 671.97 C750.25,664.30 751.10,646.04 738.45,636.39 C735.38,634.05 733.51,633.48 727.84,633.16 C719.43,632.69 716.29,633.88 711.09,639.52 C704.66,646.49 703.61,654.43 707.99,662.95 C710.35,667.57 713.45,670.39 719.00,672.98 C724.46,675.52 731.23,675.14 736.79,671.97 ZM 916.79 672.10 C924.12,668.34 928.00,661.73 928.00,652.99 C928.00,644.96 922.61,636.68 915.68,634.06 C911.67,632.55 901.38,632.75 898.20,634.41 C886.41,640.57 883.23,658.01 892.19,667.37 C898.29,673.75 909.41,675.88 916.79,672.10 ZM 952.51 653.56 C956.86,651.74 959.99,646.70 959.99,641.50 C959.99,627.01 937.33,614.94 901.92,610.57 C895.30,609.75 888.66,608.47 887.19,607.72 C885.71,606.97 877.53,602.71 869.00,598.26 C851.99,589.38 840.49,584.96 826.00,581.75 C813.34,578.94 783.40,578.73 769.00,581.34 C756.58,583.60 739.33,588.17 725.00,593.00 C695.72,602.88 699.26,602.32 663.50,602.76 C633.14,603.13 623.77,604.02 634.63,605.51 C641.79,606.49 671.21,613.07 673.25,614.15 C675.62,615.40 675.55,615.70 671.18,623.06 C669.08,626.60 666.18,631.56 664.73,634.09 L 662.11 638.68 L 632.80 639.35 C600.07,640.10 556.36,641.49 518.00,642.99 C488.13,644.16 420.16,646.52 374.00,647.99 C356.12,648.56 328.67,649.45 313.00,649.98 C297.33,650.50 269.65,651.20 251.50,651.54 C233.35,651.87 216.93,652.52 215.00,652.97 C213.07,653.43 321.27,653.73 455.42,653.65 L 699.35 653.50 L 700.50 648.50 C701.97,642.07 704.02,638.28 708.16,634.31 C715.94,626.86 727.92,624.85 737.50,629.39 C746.06,633.44 750.87,639.97 752.48,649.75 L 753.18 654.00 L 816.95 654.00 L 880.72 654.00 L 881.31 649.07 C882.71,637.18 894.44,627.07 906.88,627.02 C914.48,626.99 919.43,628.74 924.59,633.29 C929.84,637.91 931.59,640.97 933.13,648.20 C933.75,651.11 934.76,653.83 935.38,654.23 C937.33,655.51 948.92,655.06 952.51,653.56 ZM 167.71 650.79 C176.90,646.20 181.96,638.03 197.03,603.50 C199.91,596.90 203.61,588.58 205.25,585.00 C206.89,581.42 213.30,567.03 219.50,553.00 C225.69,538.97 236.44,515.00 243.38,499.72 C250.32,484.45 256.00,471.59 256.00,471.16 C256.00,470.73 256.62,469.53 257.38,468.50 C258.68,466.72 258.89,466.86 260.84,470.69 C265.10,479.05 277.59,508.97 299.47,563.25 C311.43,592.92 313.63,596.46 323.20,601.30 C337.04,608.31 352.22,605.99 362.00,595.39 C367.12,589.82 368.89,586.05 388.82,538.00 C397.61,516.83 407.70,492.75 411.24,484.50 C414.78,476.25 418.02,468.60 418.43,467.50 C419.17,465.55 419.23,465.56 420.76,467.81 C422.74,470.73 431.32,489.24 439.17,507.50 C442.48,515.20 447.62,527.01 450.59,533.75 C453.57,540.49 458.52,551.74 461.61,558.75 C464.69,565.76 470.49,578.92 474.50,588.00 C478.51,597.08 483.65,608.78 485.92,614.00 C488.19,619.22 491.28,625.75 492.78,628.50 L 495.50 633.50 L 503.00 633.81 C512.43,634.20 561.83,632.23 563.16,631.40 C563.70,631.07 561.66,628.37 558.63,625.41 C552.70,619.63 548.16,612.24 542.69,599.50 C540.80,595.10 537.68,588.12 535.76,584.00 C533.84,579.88 530.57,572.67 528.50,568.00 C523.41,556.50 512.28,531.74 503.99,513.50 C490.02,482.74 462.97,422.81 453.99,402.73 C446.35,385.65 444.01,381.34 440.74,378.39 C434.78,373.00 429.66,371.05 421.43,371.02 C407.28,370.98 399.57,376.25 393.96,389.79 C392.21,394.03 386.15,408.30 380.50,421.50 C374.85,434.70 367.21,452.70 363.53,461.50 C359.84,470.30 353.97,484.25 350.49,492.50 C347.01,500.75 343.10,510.17 341.80,513.43 C340.50,516.69 338.95,519.52 338.35,519.72 C337.19,520.10 333.90,512.83 322.43,484.50 C318.42,474.60 311.70,458.17 307.49,448.00 C303.28,437.83 296.53,421.45 292.49,411.61 C286.11,396.07 284.51,393.07 280.35,388.84 C274.07,382.48 267.57,380.00 257.12,380.00 C250.42,380.00 248.46,380.43 243.20,383.06 C235.14,387.09 232.24,391.23 222.24,413.00 C217.82,422.62 212.08,435.00 209.47,440.50 C206.87,446.00 198.89,463.10 191.73,478.50 C166.24,533.35 157.76,551.58 155.00,557.50 C139.38,591.00 125.49,618.95 122.55,622.80 C114.79,632.98 103.91,637.54 68.50,645.47 C43.55,651.06 44.72,650.73 45.50,651.99 C45.90,652.65 66.45,653.00 104.70,653.00 C163.14,653.00 163.29,652.99 167.71,650.79 ZM 1019.00 650.83 C1019.00,650.18 1013.89,641.97 1007.64,632.58 C996.09,615.20 982.96,595.11 974.94,582.53 C972.50,578.70 966.00,568.70 960.50,560.32 C950.49,545.07 930.09,513.88 908.60,481.00 C902.31,471.38 893.66,458.10 889.39,451.50 C885.11,444.90 866.55,416.77 848.14,389.00 C829.74,361.23 812.74,335.47 810.36,331.77 C805.67,324.46 803.16,323.05 798.02,324.84 C795.23,325.82 768.70,345.63 740.63,367.71 C731.72,374.72 728.45,376.79 727.49,375.99 C726.78,375.41 722.09,368.88 717.06,361.48 C712.03,354.08 701.07,338.23 692.70,326.26 C684.34,314.28 671.99,296.39 665.26,286.49 C647.72,260.72 598.83,189.13 591.51,178.50 C588.10,173.55 583.14,166.35 580.49,162.50 C573.60,152.51 572.07,151.00 568.78,151.00 C563.03,151.00 560.68,153.04 539.50,176.48 C534.55,181.96 525.14,192.30 518.59,199.47 C512.03,206.64 504.21,215.20 501.19,218.50 C498.18,221.80 492.50,227.88 488.58,232.00 C484.65,236.12 475.85,245.57 469.02,253.00 C430.27,295.15 426.77,298.91 406.09,320.74 L 389.75 337.98 L 397.22 348.24 C403.57,356.97 405.04,358.45 407.09,358.15 C408.42,357.96 414.23,357.73 420.00,357.65 C433.34,357.46 440.30,359.90 449.10,367.84 C455.80,373.89 458.18,378.32 474.36,415.00 C479.58,426.83 484.56,437.85 485.42,439.50 C486.28,441.15 486.99,442.79 486.99,443.15 C487.00,443.50 489.48,449.04 492.50,455.46 C495.52,461.87 498.00,467.32 498.00,467.58 C498.00,467.83 499.84,471.97 502.09,476.77 C504.35,481.57 513.95,502.83 523.43,524.00 C539.63,560.16 545.39,573.18 553.73,592.50 C562.20,612.13 565.77,616.52 578.68,623.22 C592.58,630.43 596.63,630.96 627.50,629.65 C653.16,628.56 653.83,628.42 656.29,623.68 C657.36,621.61 658.03,619.70 657.78,619.44 C656.24,617.91 637.16,614.97 623.50,614.16 C604.00,613.01 598.89,611.30 589.60,602.84 C582.44,596.32 577.58,587.70 575.92,578.61 C574.64,571.58 574.42,544.47 574.75,435.25 L 575.00 353.00 L 604.50 353.00 L 634.00 353.00 L 634.00 448.35 C634.00,500.79 634.29,547.14 634.65,551.34 L 635.29 558.99 L 702.90 559.24 L 770.50 559.50 L 770.80 564.09 L 771.10 568.67 L 791.42 568.20 C807.57,567.83 813.87,568.09 822.12,569.44 C840.83,572.52 862.55,581.08 883.40,593.62 C890.98,598.17 891.79,598.42 903.40,599.74 C927.37,602.46 947.59,609.65 958.57,619.35 C964.00,624.16 969.40,633.25 970.28,639.04 C970.57,640.99 970.46,644.47 970.04,646.77 C969.62,649.06 969.52,651.18 969.81,651.47 C970.10,651.76 981.28,652.00 994.67,652.00 C1012.63,652.00 1019.00,651.69 1019.00,650.83 ZM 45.07 638.96 C71.05,632.57 92.97,626.08 99.75,622.78 C108.76,618.38 113.06,613.13 120.55,597.36 C124.10,589.89 127.00,583.67 127.00,583.53 C127.00,583.39 130.32,576.36 134.37,567.89 C138.42,559.43 144.45,546.65 147.77,539.50 C151.09,532.35 157.22,519.16 161.40,510.19 C165.58,501.22 169.00,493.74 169.00,493.57 C169.00,493.39 172.15,486.67 176.00,478.64 C179.85,470.61 183.00,463.86 183.00,463.64 C183.00,463.28 186.30,456.23 199.23,429.00 C201.98,423.23 207.36,411.78 211.19,403.56 C215.03,395.34 219.43,386.79 220.98,384.56 C233.61,366.31 256.74,359.96 276.46,369.32 C291.50,376.46 294.03,380.18 309.62,418.00 C312.68,425.42 315.78,432.85 316.50,434.50 C318.42,438.87 325.67,456.19 329.60,465.80 C334.78,478.47 336.97,483.00 337.90,483.00 C338.37,483.00 339.34,481.54 340.06,479.75 C340.77,477.96 342.35,474.25 343.57,471.50 C345.84,466.36 364.62,422.79 370.71,408.50 C372.59,404.10 375.41,397.33 376.97,393.46 C381.71,381.73 385.58,374.35 389.53,369.53 L 393.28 364.96 L 375.88 347.23 C352.84,323.76 310.54,279.89 304.39,273.09 C293.61,261.17 285.69,256.93 278.05,258.99 C270.46,261.03 269.27,262.54 242.88,303.68 C233.07,318.96 228.49,326.20 224.97,331.98 C221.96,336.92 214.38,348.64 195.54,377.50 C191.59,383.55 186.37,391.63 183.93,395.45 C175.97,407.94 158.52,435.03 149.45,449.00 C146.06,454.23 140.91,462.33 138.01,467.00 C135.12,471.67 130.56,478.88 127.88,483.00 C125.20,487.12 119.07,496.67 114.25,504.20 C109.44,511.74 99.22,527.71 91.55,539.70 C83.88,551.69 69.98,573.42 60.67,588.00 C51.35,602.58 40.14,620.03 35.76,626.80 C27.89,638.95 25.87,643.00 27.71,643.00 C28.22,643.00 36.04,641.18 45.07,638.96 ZM 399.11 267.98 C417.02,264.61 432.26,250.55 438.13,232.00 C440.83,223.46 441.05,209.79 438.62,201.50 C431.98,178.86 412.91,164.69 389.00,164.62 C364.65,164.54 344.46,179.77 338.49,202.70 C336.57,210.09 336.59,222.99 338.53,230.46 C341.83,243.10 351.52,255.58 363.50,262.57 C373.08,268.16 386.97,270.27 399.11,267.98 ZM 356.90 858.71 C355.03,857.45 352.38,854.42 351.02,851.96 C348.92,848.20 348.53,846.17 348.52,839.00 C348.50,829.05 350.30,824.39 355.82,820.19 C358.80,817.92 360.34,817.50 365.63,817.52 C373.42,817.54 376.42,819.48 380.25,826.98 C386.19,838.61 382.56,854.52 372.80,859.60 C368.54,861.81 360.87,861.39 356.90,858.71 ZM 578.23 861.00 C572.35,857.42 571.43,851.41 576.05,846.79 L 579.11 843.74 L 588.80 844.25 C601.44,844.92 602.00,845.18 602.00,850.47 C602.00,858.13 595.89,863.00 586.28,863.00 C583.27,862.99 580.29,862.25 578.23,861.00 ZM 730.54 830.75 C732.12,825.51 735.70,820.40 739.01,818.70 C744.18,816.02 754.01,816.74 757.60,820.05 C760.50,822.73 763.00,827.77 763.00,830.97 C763.00,832.93 762.42,833.00 746.43,833.00 L 729.87 833.00 L 730.54 830.75 ZM 773.50 609.32 C756.98,608.47 740.52,606.92 739.73,606.13 C737.74,604.14 750.52,597.74 764.64,593.65 C791.51,585.86 814.82,586.32 838.81,595.09 C853.27,600.38 865.65,607.14 864.45,609.08 C863.94,609.91 789.00,610.11 773.50,609.32 ZM 871.86 445.30 C868.91,442.71 864.02,438.32 860.99,435.55 C857.96,432.77 850.81,426.23 845.10,421.00 C839.39,415.77 834.22,411.50 833.61,411.50 C832.84,411.50 832.61,415.48 832.86,424.62 C833.08,432.88 832.83,437.98 832.19,438.38 C831.35,438.90 801.63,403.19 797.81,397.07 C796.95,395.69 797.19,391.70 798.79,380.38 C799.95,372.20 801.44,358.98 802.11,351.00 C802.78,343.02 803.67,336.10 804.10,335.61 C804.53,335.12 806.66,337.60 808.85,341.11 C812.81,347.48 814.59,350.27 833.98,380.50 C839.62,389.30 851.85,407.86 861.15,421.74 C870.45,435.62 878.32,447.66 878.64,448.49 C879.67,451.20 877.32,450.09 871.86,445.30 ZM 676.00 326.26 C671.31,322.62 654.71,308.29 630.26,286.75 C619.17,276.99 609.85,269.00 609.55,269.00 C609.25,269.00 609.00,278.23 609.00,289.50 C609.00,301.24 608.61,310.00 608.08,310.00 C607.12,310.00 598.82,300.68 592.94,293.00 C591.05,290.53 588.75,287.61 587.84,286.50 C586.92,285.40 582.67,280.23 578.39,275.00 C574.10,269.77 567.51,261.81 563.73,257.30 L 556.87 249.10 L 559.43 235.30 C562.99,216.21 564.63,205.33 567.00,185.06 C568.13,175.47 569.30,167.37 569.62,167.06 C570.64,166.05 575.70,173.35 627.48,250.50 C655.37,292.05 662.17,302.02 676.76,322.75 C681.56,329.57 681.37,330.43 676.00,326.26 Z" fill="rgb(254,254,254)"/>
</g>
</svg>